<svg width="24" height="24" viewBox="0 0 24 24" fill="none" xmlns="http://www.w3.org/2000/svg">
<path fill-rule="evenodd" clip-rule="evenodd" d="M4 1.97607C2.34315 1.97607 1 3.31922 1 4.97607V10.8219C1 12.146 1.52523 13.416 2.46045 14.3534L8.93986 20.8475C10.8918 22.8039 14.0608 22.8057 16.0149 20.8515L19.8755 16.991C21.8297 15.0368 21.8279 11.8679 19.8715 9.91593L13.3773 3.43653C12.44 2.5013 11.1699 1.97607 9.8458 1.97607H4ZM3 4.97607C3 4.42379 3.44772 3.97607 4 3.97607H9.8458C10.6403 3.97607 11.4023 4.29121 11.9647 4.85235L18.4588 11.3318C19.6327 12.5029 19.6338 14.4043 18.4613 15.5768L14.6007 19.4373C13.4282 20.6098 11.5269 20.6088 10.3557 19.4349L3.87627 12.9408C3.31514 12.3784 3 11.6163 3 10.8219V4.97607ZM6 8C6.55228 8 7 7.55228 7 7C7 6.44772 6.55228 6 6 6C5.44772 6 5 6.44772 5 7C5 7.55228 5.44772 8 6 8Z" fill="black"/>
<path d="M14.8343 16.7921C14.7798 16.8466 14.7179 16.8738 14.6486 16.8738C14.5792 16.8738 14.5173 16.8466 14.4629 16.7921L13.9503 16.2796C13.5293 16.6114 13.1232 16.8342 12.732 16.9481C12.3358 17.0571 11.9718 17.0744 11.64 17.0001C11.3082 16.9258 11.0259 16.7822 10.7931 16.5693C10.7535 16.5296 10.7337 16.4801 10.7337 16.4207C10.7337 16.3514 10.756 16.2944 10.8006 16.2498L11.5954 15.455C11.6598 15.3906 11.7242 15.3559 11.7886 15.351C11.848 15.3411 11.9124 15.3411 11.9817 15.351C12.1006 15.4005 12.2368 15.4277 12.3903 15.4327C12.5488 15.4327 12.7221 15.3931 12.9103 15.3138C13.0935 15.2296 13.2842 15.0885 13.4823 14.8904C13.8042 14.5685 13.9924 14.2763 14.0469 14.0138C14.1063 13.7464 14.0469 13.5236 13.8686 13.3453C13.7398 13.2165 13.5912 13.1571 13.4229 13.167C13.2594 13.1719 13.0514 13.2363 12.7989 13.3601C12.5512 13.479 12.2343 13.6573 11.848 13.895C11.3973 14.1872 10.9813 14.4001 10.6 14.5338C10.2137 14.6626 9.85466 14.6948 9.52286 14.6304C9.19105 14.5561 8.87657 14.3704 8.57943 14.0733C8.18819 13.682 7.99505 13.2116 8 12.6618C8.0099 12.1072 8.23029 11.55 8.66114 10.9904L8.14857 10.4778C8.09409 10.4234 8.06686 10.3615 8.06686 10.2921C8.06686 10.2228 8.0941 10.1609 8.14857 10.1064L8.676 9.57899C8.72552 9.52946 8.78495 9.5047 8.85428 9.5047C8.92362 9.5047 8.98552 9.53194 9.04 9.58642L9.56743 10.1138C9.96362 9.82661 10.3524 9.64584 10.7337 9.57156C11.115 9.48737 11.4617 9.48241 11.7737 9.5567C12.0857 9.62108 12.3333 9.73994 12.5166 9.91327C12.5562 9.95289 12.5785 10.0049 12.5834 10.0693C12.5834 10.1287 12.5611 10.1807 12.5166 10.2253L11.6771 11.0647C11.6326 11.1093 11.5806 11.1415 11.5211 11.1613C11.4617 11.1811 11.3924 11.1811 11.3131 11.1613C11.1596 11.0573 10.9615 11.0325 10.7189 11.087C10.4712 11.1365 10.2335 11.2752 10.0057 11.503C9.76305 11.7457 9.61447 11.9834 9.56 12.2161C9.50552 12.4489 9.5699 12.6569 9.75314 12.8401C9.872 12.959 10.0107 13.0234 10.1691 13.0333C10.3227 13.0382 10.5158 12.9887 10.7486 12.8847C10.9764 12.7757 11.271 12.6148 11.6326 12.4018C12.1575 12.0552 12.6181 11.8076 13.0143 11.659C13.4105 11.5104 13.7695 11.4733 14.0914 11.5476C14.4133 11.6119 14.7229 11.7927 15.02 12.0898C15.3072 12.3771 15.4905 12.7039 15.5697 13.0704C15.644 13.4319 15.6168 13.8108 15.488 14.207C15.3642 14.5982 15.1488 14.9919 14.8417 15.3881L15.3543 15.9007C15.4088 15.9552 15.436 16.0171 15.436 16.0864C15.436 16.1557 15.4112 16.2152 15.3617 16.2647L14.8343 16.7921Z" fill="black"/>
</svg>
