<svg width="24" height="24" viewBox="0 0 24 24" fill="none" xmlns="http://www.w3.org/2000/svg">
<path fill-rule="evenodd" clip-rule="evenodd" d="M6.12806 5.79286C6.56592 5.45626 6.64801 4.82844 6.31141 4.39058C5.97481 3.95273 5.34699 3.87064 4.90913 4.20724C2.53667 6.03104 1 8.83772 1 12C1 15.1624 2.53667 17.9691 4.90913 19.7929C5.34699 20.1295 5.97481 20.0474 6.31141 19.6095C6.64801 19.1717 6.56592 18.5438 6.12806 18.2072C4.20789 16.7311 3 14.4923 3 12C3 9.50785 4.20789 7.26897 6.12806 5.79286ZM19.0909 4.20724C18.653 3.87064 18.0252 3.95273 17.6886 4.39058C17.352 4.82844 17.4341 5.45626 17.8719 5.79286C19.7921 7.26897 21 9.50785 21 12C21 14.4923 19.7921 16.7311 17.8719 18.2072C17.4341 18.5438 17.352 19.1717 17.6886 19.6095C18.0252 20.0474 18.653 20.1295 19.0909 19.7929C21.4633 17.9691 23 15.1624 23 12C23 8.83772 21.4633 6.03104 19.0909 4.20724ZM8.72466 8.22663C9.1518 8.57672 9.21427 9.2068 8.86418 9.63395C8.31524 10.3037 8.00002 11.1217 8.00002 12C8.00002 12.8784 8.31524 13.6964 8.86418 14.3662C9.21427 14.7933 9.1518 15.4234 8.72466 15.7735C8.29751 16.1236 7.66743 16.0611 7.31734 15.6339C6.4965 14.6324 6.00002 13.3729 6.00002 12C6.00002 10.6272 6.4965 9.36766 7.31734 8.36615C7.66743 7.93901 8.29751 7.87654 8.72466 8.22663ZM15.3661 8.22663C15.7933 7.87654 16.4233 7.93901 16.7734 8.36615C17.5943 9.36766 18.0908 10.6272 18.0908 12C18.0908 13.3729 17.5943 14.6324 16.7734 15.6339C16.4233 16.0611 15.7933 16.1236 15.3661 15.7735C14.939 15.4234 14.8765 14.7933 15.2266 14.3662C15.7755 13.6964 16.0908 12.8784 16.0908 12C16.0908 11.1217 15.7755 10.3037 15.2266 9.63395C14.8765 9.2068 14.939 8.57672 15.3661 8.22663ZM13.5 12C13.5 13 13 13.5 12 13.5C11 13.5 10.5 13 10.5 12C10.5 11 11 10.5 12 10.5C13 10.5 13.5 11 13.5 12Z" fill="#393C47"/>
</svg>
