<svg width="71" height="57" viewBox="0 0 71 57" fill="none" xmlns="http://www.w3.org/2000/svg">
<g filter="url(#filter0_d_111_29)">
<path fill-rule="evenodd" clip-rule="evenodd" d="M59.5849 19.5355C62.1272 17.7238 63.7573 14.9263 63.7573 11.7871C63.7573 6.32522 58.8222 1.89746 52.7343 1.89746C46.6465 1.89746 41.7113 6.32522 41.7113 11.7871C41.7113 14.8374 43.2505 17.5652 45.6701 19.3793C44.4139 19.852 43.2614 20.4547 42.2517 21.169C40.9153 22.1143 39.8553 23.2366 39.1321 24.4718C38.4089 25.7069 38.0366 27.0308 38.0366 28.3677H52.4278H66.8189C66.8189 27.0308 66.4467 25.7069 65.7234 24.4718C65.0002 23.2366 63.9402 22.1143 62.6038 21.169C61.7021 20.5311 60.6866 19.9822 59.5849 19.5355Z" fill="black"/>
<path fill-rule="evenodd" clip-rule="evenodd" d="M26.4975 19.5355C29.0398 17.7238 30.6699 14.9263 30.6699 11.7871C30.6699 6.32522 25.7348 1.89746 19.6469 1.89746C13.5591 1.89746 8.62392 6.32522 8.62392 11.7871C8.62392 14.8374 10.1631 17.5652 12.5827 19.3793C11.3265 19.852 10.174 20.4547 9.16429 21.169C7.82794 22.1143 6.7679 23.2366 6.04468 24.4718C5.32146 25.7069 4.94922 27.0308 4.94922 28.3677H19.3404H33.7315C33.7315 27.0308 33.3593 25.7069 32.636 24.4718C31.9128 23.2366 30.8528 22.1143 29.5164 21.169C28.6147 20.5311 27.5992 19.9822 26.4975 19.5355Z" fill="black"/>
<mask id="path-3-inside-1_111_29" fill="white">
<path fill-rule="evenodd" clip-rule="evenodd" d="M45.334 35.9504C48.9705 33.3586 51.3023 29.3568 51.3023 24.8663C51.3023 17.0527 44.2423 10.7185 35.5333 10.7185C26.8243 10.7185 19.7642 17.0527 19.7642 24.8663C19.7642 29.2298 21.9661 33.132 25.4274 35.7272C23.6305 36.4033 21.982 37.2655 20.5377 38.2872C18.626 39.6395 17.1095 41.245 16.0749 43.012C15.0403 44.779 14.5078 46.6728 14.5078 48.5854H35.0952H55.6825C55.6825 46.6728 55.15 44.779 54.1154 43.012C53.0808 41.245 51.5643 39.6395 49.6526 38.2872C48.3627 37.3746 46.9099 36.5894 45.334 35.9504Z"/>
</mask>
<path fill-rule="evenodd" clip-rule="evenodd" d="M45.334 35.9504C48.9705 33.3586 51.3023 29.3568 51.3023 24.8663C51.3023 17.0527 44.2423 10.7185 35.5333 10.7185C26.8243 10.7185 19.7642 17.0527 19.7642 24.8663C19.7642 29.2298 21.9661 33.132 25.4274 35.7272C23.6305 36.4033 21.982 37.2655 20.5377 38.2872C18.626 39.6395 17.1095 41.245 16.0749 43.012C15.0403 44.779 14.5078 46.6728 14.5078 48.5854H35.0952H55.6825C55.6825 46.6728 55.15 44.779 54.1154 43.012C53.0808 41.245 51.5643 39.6395 49.6526 38.2872C48.3627 37.3746 46.9099 36.5894 45.334 35.9504Z" fill="black"/>
<path d="M45.334 35.9504L43.883 33.9145L40.176 36.5564L44.3944 38.2671L45.334 35.9504ZM25.4274 35.7272L26.3078 38.0671L30.5743 36.4617L26.9271 33.727L25.4274 35.7272ZM20.5377 38.2872L21.9815 40.3281L21.9815 40.3281L20.5377 38.2872ZM16.0749 43.012L18.2323 44.2752L18.2323 44.2752L16.0749 43.012ZM14.5078 48.5854L12.0078 48.5854L12.0078 51.0854H14.5078V48.5854ZM55.6825 48.5854V51.0854H58.1825V48.5854H55.6825ZM54.1154 43.012L51.958 44.2752L51.958 44.2752L54.1154 43.012ZM49.6526 38.2872L48.2088 40.3281L48.2088 40.3281L49.6526 38.2872ZM48.8023 24.8663C48.8023 28.4492 46.9465 31.7312 43.883 33.9145L46.7849 37.9862C50.9945 34.9861 53.8023 30.2643 53.8023 24.8663H48.8023ZM35.5333 13.2185C43.1236 13.2185 48.8023 18.6816 48.8023 24.8663H53.8023C53.8023 15.4238 45.361 8.21851 35.5333 8.21851V13.2185ZM22.2642 24.8663C22.2642 18.6816 27.943 13.2185 35.5333 13.2185V8.21851C25.7056 8.21851 17.2642 15.4238 17.2642 24.8663H22.2642ZM26.9271 33.727C24.0166 31.5448 22.2642 28.3492 22.2642 24.8663H17.2642C17.2642 30.1104 19.9155 34.7192 23.9276 37.7274L26.9271 33.727ZM24.547 33.3874C22.5683 34.1319 20.7275 35.0906 19.0939 36.2462L21.9815 40.3281C23.2365 39.4403 24.6927 38.6748 26.3078 38.0671L24.547 33.3874ZM19.0939 36.2462C16.9333 37.7747 15.1561 39.6336 13.9175 41.7488L18.2323 44.2752C19.063 42.8565 20.3187 41.5044 21.9815 40.3281L19.0939 36.2462ZM13.9175 41.7488C12.675 43.8709 12.0078 46.1974 12.0078 48.5854L17.0078 48.5854C17.0078 47.1482 17.4056 45.6871 18.2323 44.2752L13.9175 41.7488ZM14.5078 51.0854H35.0952V46.0854H14.5078V51.0854ZM35.0952 51.0854H55.6825V46.0854H35.0952V51.0854ZM58.1825 48.5854C58.1825 46.1974 57.5154 43.8709 56.2728 41.7488L51.958 44.2752C52.7847 45.6871 53.1825 47.1482 53.1825 48.5854H58.1825ZM56.2728 41.7488C55.0343 39.6336 53.257 37.7746 51.0964 36.2462L48.2088 40.3281C49.8717 41.5044 51.1273 42.8565 51.958 44.2752L56.2728 41.7488ZM51.0964 36.2462C49.6372 35.2139 48.0129 34.339 46.2735 33.6336L44.3944 38.2671C45.8069 38.8399 47.0882 39.5354 48.2088 40.3281L51.0964 36.2462Z" fill="#282B30" mask="url(#path-3-inside-1_111_29)"/>
</g>
<g filter="url(#filter1_d_111_29)">
<path fill-rule="evenodd" clip-rule="evenodd" d="M58.6351 17.6377C61.1771 15.826 62.8071 13.0286 62.8071 9.88967C62.8071 4.42776 57.8719 0 51.7841 0C45.6963 0 40.7611 4.42776 40.7611 9.88967C40.7611 12.9401 42.3004 15.668 44.7202 17.4821C43.4643 17.9547 42.312 18.5573 41.3025 19.2715C39.9661 20.2169 38.9061 21.3392 38.1829 22.5743C37.4596 23.8095 37.0874 25.1333 37.0874 26.4702H51.4785H65.8697C65.8697 25.1333 65.4974 23.8095 64.7742 22.5743C64.051 21.3391 62.991 20.2169 61.6546 19.2715C60.7527 18.6335 59.737 18.0845 58.6351 17.6377Z" fill="#FCD434"/>
<path fill-rule="evenodd" clip-rule="evenodd" d="M25.5483 17.638C28.0906 15.8263 29.7207 13.0288 29.7207 9.88967C29.7207 4.42776 24.7855 0 18.6977 0C12.6099 0 7.6747 4.42776 7.6747 9.88967C7.6747 12.94 9.21392 15.6677 11.6335 17.4819C10.3773 17.9545 9.22478 18.5572 8.21507 19.2715C6.87873 20.2169 5.81868 21.3392 5.09546 22.5743C4.37224 23.8095 4 25.1333 4 26.4702H18.3911H32.7823C32.7823 25.1333 32.41 23.8095 31.6868 22.5743C30.9636 21.3391 29.9036 20.2169 28.5672 19.2715C27.6655 18.6336 26.65 18.0847 25.5483 17.638Z" fill="#FCD434"/>
<mask id="path-7-inside-2_111_29" fill="white">
<path fill-rule="evenodd" clip-rule="evenodd" d="M44.3847 34.054C48.0213 31.4623 50.3531 27.4604 50.3531 22.9699C50.3531 15.1563 43.293 8.82214 34.584 8.82214C25.875 8.82214 18.815 15.1563 18.815 22.9699C18.815 27.3335 21.0169 31.2356 24.4782 33.8309C22.6813 34.507 21.0328 35.3691 19.5885 36.3908C17.6768 37.7432 16.1603 39.3487 15.1257 41.1157C14.0911 42.8826 13.5586 44.7765 13.5586 46.689H34.146H54.7333C54.7333 44.7765 54.2008 42.8826 53.1662 41.1157C52.1316 39.3487 50.6151 37.7432 48.7034 36.3908C47.4135 35.4783 45.9607 34.6931 44.3847 34.054Z"/>
</mask>
<path fill-rule="evenodd" clip-rule="evenodd" d="M44.3847 34.054C48.0213 31.4623 50.3531 27.4604 50.3531 22.9699C50.3531 15.1563 43.293 8.82214 34.584 8.82214C25.875 8.82214 18.815 15.1563 18.815 22.9699C18.815 27.3335 21.0169 31.2356 24.4782 33.8309C22.6813 34.507 21.0328 35.3691 19.5885 36.3908C17.6768 37.7432 16.1603 39.3487 15.1257 41.1157C14.0911 42.8826 13.5586 44.7765 13.5586 46.689H34.146H54.7333C54.7333 44.7765 54.2008 42.8826 53.1662 41.1157C52.1316 39.3487 50.6151 37.7432 48.7034 36.3908C47.4135 35.4783 45.9607 34.6931 44.3847 34.054Z" fill="#FCD434"/>
<path d="M44.3847 34.054L42.9338 32.0181L39.2268 34.66L43.4452 36.3707L44.3847 34.054ZM24.4782 33.8309L25.3586 36.1707L29.6251 34.5653L25.9779 31.8307L24.4782 33.8309ZM19.5885 36.3908L21.0323 38.4317L21.0323 38.4317L19.5885 36.3908ZM15.1257 41.1157L17.2831 42.3789L17.2831 42.3789L15.1257 41.1157ZM13.5586 46.689L11.0586 46.689L11.0586 49.189H13.5586V46.689ZM54.7333 46.689V49.189H57.2333V46.689H54.7333ZM53.1662 41.1157L51.0088 42.3789L51.0088 42.3789L53.1662 41.1157ZM48.7034 36.3908L50.1472 34.3499L50.1472 34.3499L48.7034 36.3908ZM47.8531 22.9699C47.8531 26.5528 45.9973 29.8348 42.9338 32.0181L45.8357 36.0899C50.0452 33.0897 52.8531 28.368 52.8531 22.9699H47.8531ZM34.584 11.3221C42.1743 11.3221 47.8531 16.7852 47.8531 22.9699H52.8531C52.8531 13.5274 44.4118 6.32214 34.584 6.32214V11.3221ZM21.315 22.9699C21.315 16.7852 26.9938 11.3221 34.584 11.3221V6.32214C24.7563 6.32214 16.315 13.5274 16.315 22.9699H21.315ZM25.9779 31.8307C23.0674 29.6484 21.315 26.4528 21.315 22.9699H16.315C16.315 28.2141 18.9663 32.8229 22.9784 35.8311L25.9779 31.8307ZM23.5977 31.491C21.6191 32.2355 19.7783 33.1942 18.1447 34.3499L21.0323 38.4317C22.2873 37.5439 23.7435 36.7784 25.3586 36.1707L23.5977 31.491ZM18.1447 34.3499C15.9841 35.8783 14.2068 37.7372 12.9683 39.8524L17.2831 42.3789C18.1138 40.9601 19.3694 39.6081 21.0323 38.4317L18.1447 34.3499ZM12.9683 39.8524C11.7258 41.9746 11.0586 44.301 11.0586 46.689L16.0586 46.689C16.0586 45.2519 16.4564 43.7907 17.2831 42.3789L12.9683 39.8524ZM13.5586 49.189H34.146V44.189H13.5586V49.189ZM34.146 49.189H54.7333V44.189H34.146V49.189ZM57.2333 46.689C57.2333 44.301 56.5661 41.9746 55.3236 39.8524L51.0088 42.3789C51.8355 43.7907 52.2333 45.2519 52.2333 46.689H57.2333ZM55.3236 39.8524C54.0851 37.7372 52.3078 35.8783 50.1472 34.3499L47.2596 38.4317C48.9225 39.6081 50.1781 40.9601 51.0088 42.3789L55.3236 39.8524ZM50.1472 34.3499C48.688 33.3176 47.0637 32.4426 45.3242 31.7372L43.4452 36.3707C44.8577 36.9435 46.139 37.639 47.2596 38.4317L50.1472 34.3499Z" fill="#282B30" mask="url(#path-7-inside-2_111_29)"/>
</g>
<defs>
<filter id="filter0_d_111_29" x="0.949219" y="1.89746" width="69.8696" height="54.6879" filterUnits="userSpaceOnUse" color-interpolation-filters="sRGB">
<feFlood flood-opacity="0" result="BackgroundImageFix"/>
<feColorMatrix in="SourceAlpha" type="matrix" values="0 0 0 0 0 0 0 0 0 0 0 0 0 0 0 0 0 0 127 0" result="hardAlpha"/>
<feOffset dy="4"/>
<feGaussianBlur stdDeviation="2"/>
<feComposite in2="hardAlpha" operator="out"/>
<feColorMatrix type="matrix" values="0 0 0 0 0 0 0 0 0 0 0 0 0 0 0 0 0 0 0.25 0"/>
<feBlend mode="normal" in2="BackgroundImageFix" result="effect1_dropShadow_111_29"/>
<feBlend mode="normal" in="SourceGraphic" in2="effect1_dropShadow_111_29" result="shape"/>
</filter>
<filter id="filter1_d_111_29" x="0" y="0" width="69.8696" height="54.689" filterUnits="userSpaceOnUse" color-interpolation-filters="sRGB">
<feFlood flood-opacity="0" result="BackgroundImageFix"/>
<feColorMatrix in="SourceAlpha" type="matrix" values="0 0 0 0 0 0 0 0 0 0 0 0 0 0 0 0 0 0 127 0" result="hardAlpha"/>
<feOffset dy="4"/>
<feGaussianBlur stdDeviation="2"/>
<feComposite in2="hardAlpha" operator="out"/>
<feColorMatrix type="matrix" values="0 0 0 0 0 0 0 0 0 0 0 0 0 0 0 0 0 0 0.25 0"/>
<feBlend mode="normal" in2="BackgroundImageFix" result="effect1_dropShadow_111_29"/>
<feBlend mode="normal" in="SourceGraphic" in2="effect1_dropShadow_111_29" result="shape"/>
</filter>
</defs>
</svg>
