<svg width="63" height="45" viewBox="0 0 63 45" fill="none" xmlns="http://www.w3.org/2000/svg">
<path fill-rule="evenodd" clip-rule="evenodd" d="M21.4371 12.2443C14.7432 18.7317 14.7432 29.2685 21.4371 35.7557L18.9874 38C11.0042 30.2629 11.0042 17.7369 18.9874 10L21.4371 12.2443ZM45.5629 35.7557C52.2569 29.2685 52.2569 18.7317 45.5629 12.2443L48.0127 10C55.9958 17.7369 55.9958 30.2629 48.0127 38L45.5629 35.7557Z" fill="black"/>
<path fill-rule="evenodd" clip-rule="evenodd" d="M14.1428 5.33906C3.73016 15.6455 3.73016 32.3545 14.1428 42.6607L11.7878 45C0.0707286 33.4022 0.0707286 14.5976 11.7878 3L14.1428 5.33906ZM51.8573 42.6607C62.2696 32.3545 62.2696 15.6455 51.8573 5.33906L54.2123 3C65.9292 14.5976 65.9292 33.4022 54.2123 45L51.8573 42.6607Z" fill="black"/>
<path fill-rule="evenodd" clip-rule="evenodd" d="M32.8939 17.0742C29.2161 17.0742 26.2348 20.0554 26.2348 23.7332C26.2348 27.411 29.2161 30.3923 32.8939 30.3923C36.5716 30.3923 39.5529 27.411 39.5529 23.7332C39.5529 20.0554 36.5716 17.0742 32.8939 17.0742ZM22.9053 23.7332C22.9053 18.2165 27.3772 13.7446 32.8939 13.7446C38.4105 13.7446 42.8824 18.2165 42.8824 23.7332C42.8824 29.2499 38.4105 33.7218 32.8939 33.7218C27.3772 33.7218 22.9053 29.2499 22.9053 23.7332Z" fill="black"/>
<ellipse cx="32.7466" cy="23.4378" rx="7.08986" ry="7.60683" fill="black"/>
<path fill-rule="evenodd" clip-rule="evenodd" d="M18.4371 9.2443C11.7432 15.7317 11.7432 26.2685 18.4371 32.7557L15.9874 35C8.00418 27.2629 8.00418 14.7369 15.9874 7L18.4371 9.2443ZM42.5629 32.7557C49.2569 26.2685 49.2569 15.7317 42.5629 9.2443L45.0127 7C52.9958 14.7369 52.9958 27.2629 45.0127 35L42.5629 32.7557Z" fill="#FCD434"/>
<path fill-rule="evenodd" clip-rule="evenodd" d="M11.1428 2.33906C0.730158 12.6455 0.730158 29.3545 11.1428 39.6607L8.78781 42C-2.92927 30.4022 -2.92927 11.5976 8.78781 0L11.1428 2.33906ZM48.8573 39.6607C59.2696 29.3545 59.2696 12.6455 48.8573 2.33906L51.2123 0C62.9292 11.5976 62.9292 30.4022 51.2123 42L48.8573 39.6607Z" fill="#FCD434"/>
<path fill-rule="evenodd" clip-rule="evenodd" d="M29.8939 14.0742C26.2161 14.0742 23.2348 17.0554 23.2348 20.7332C23.2348 24.411 26.2161 27.3923 29.8939 27.3923C33.5716 27.3923 36.5529 24.411 36.5529 20.7332C36.5529 17.0554 33.5716 14.0742 29.8939 14.0742ZM19.9053 20.7332C19.9053 15.2165 24.3772 10.7446 29.8939 10.7446C35.4105 10.7446 39.8824 15.2165 39.8824 20.7332C39.8824 26.2499 35.4105 30.7218 29.8939 30.7218C24.3772 30.7218 19.9053 26.2499 19.9053 20.7332Z" fill="#FCD434"/>
<ellipse cx="29.7466" cy="20.4378" rx="7.08986" ry="7.60683" fill="#FCD434"/>
</svg>
