<svg width="77" height="76" viewBox="0 0 77 76" fill="none" xmlns="http://www.w3.org/2000/svg">
<path d="M61.7913 25.8125H19.208C16.6882 25.8125 14.6455 27.8552 14.6455 30.375V57.75C14.6455 60.2698 16.6882 62.3125 19.208 62.3125H61.7913C64.3111 62.3125 66.3538 60.2698 66.3538 57.75V30.375C66.3538 27.8552 64.3111 25.8125 61.7913 25.8125Z" stroke="black" stroke-width="3.28288"/>
<path fill-rule="evenodd" clip-rule="evenodd" d="M15.125 25.2533C15.125 28.2949 15.125 28.8019 15.125 26.7741C15.125 24.7463 15.125 23.7324 15.125 23.7324C15.125 21.2126 17.1677 19.1699 19.6875 19.1699H47.0625C49.5823 19.1699 51.625 21.2126 51.625 23.7324V25.2533H15.125Z" stroke="black" stroke-width="3.28288"/>
<path fill-rule="evenodd" clip-rule="evenodd" d="M66.3532 50.1459V37.9792H50.8407C47.4809 37.9792 44.7573 40.7028 44.7573 44.0626C44.7573 47.4223 47.4809 50.1459 50.8407 50.1459H66.3532Z" stroke="black" stroke-width="2.56475"/>
<path d="M57.7913 22.8125H15.208C12.6882 22.8125 10.6455 24.8552 10.6455 27.375V54.75C10.6455 57.2698 12.6882 59.3125 15.208 59.3125H57.7913C60.3111 59.3125 62.3538 57.2698 62.3538 54.75V27.375C62.3538 24.8552 60.3111 22.8125 57.7913 22.8125Z" stroke="#FCD434" stroke-width="3.28288"/>
<path fill-rule="evenodd" clip-rule="evenodd" d="M11.125 22.2533C11.125 25.2949 11.125 25.8019 11.125 23.7741C11.125 21.7463 11.125 20.7324 11.125 20.7324C11.125 18.2126 13.1677 16.1699 15.6875 16.1699H43.0625C45.5823 16.1699 47.625 18.2126 47.625 20.7324V22.2533H11.125Z" stroke="#FCD434" stroke-width="3.28288"/>
<path fill-rule="evenodd" clip-rule="evenodd" d="M62.3532 47.1459V34.9792H46.8407C43.4809 34.9792 40.7573 37.7028 40.7573 41.0626C40.7573 44.4223 43.4809 47.1459 46.8407 47.1459H62.3532Z" stroke="#FCD434" stroke-width="2.56475"/>
</svg>
