<svg width="65" height="67" viewBox="0 0 65 67" fill="none" xmlns="http://www.w3.org/2000/svg">
<path d="M59.1155 36.2089C59.1155 36.703 59.1155 37.283 59.1155 37.9489C59.1155 38.6148 59.094 39.1411 59.0511 39.5278C57.4829 39.5278 55.7429 39.5278 53.8311 39.5278C51.9192 39.5278 50.0181 39.5278 48.1277 39.5278C46.2589 39.5278 44.5511 39.5278 43.0044 39.5278C41.4792 39.5278 40.287 39.5278 39.4278 39.5278C39.3848 39.0767 39.3418 38.5719 39.2989 38.0134C39.2774 37.4548 39.2667 36.8856 39.2667 36.3056C40.3837 36.2626 41.9948 36.2197 44.1 36.1767C46.2052 36.1337 48.2889 36.1123 50.3511 36.1123C52.3274 36.1123 54.0888 36.1123 55.6355 36.1123C57.1822 36.1123 58.3422 36.1445 59.1155 36.2089ZM10.5245 50.1611C9.96598 50.1826 9.32154 50.1826 8.59117 50.1611C7.8608 50.1611 7.16265 50.1504 6.49673 50.1289C5.8308 50.1074 5.29377 50.0752 4.88562 50.0322C4.86414 49.6026 4.84266 48.6037 4.82118 47.0356C4.7997 45.4674 4.77821 43.5448 4.75673 41.2678C4.73525 38.9693 4.71377 36.5097 4.69229 33.8889C4.69229 31.2682 4.68155 28.6689 4.66007 26.0912C4.66007 23.5134 4.66007 21.1719 4.66007 19.0667C4.66007 17.6704 4.66007 16.3279 4.66007 15.039C4.66007 13.7286 4.64933 12.5579 4.62784 11.5268C4.62784 10.4956 4.6171 9.65787 4.59562 9.01343C4.89636 9.01343 5.30451 9.03491 5.82006 9.07787C6.33562 9.09935 6.88339 9.13158 7.46339 9.17454C8.06487 9.19602 8.63413 9.23899 9.17117 9.30343C9.7082 9.34639 10.1378 9.4001 10.4601 9.46454C12.1571 12.0208 13.8649 14.7382 15.5834 17.6167C17.3234 20.4953 19.0204 23.3952 20.6745 26.3167C22.3285 29.2167 23.8645 31.9986 25.2822 34.6623C26.7215 37.326 27.9889 39.7211 29.0845 41.8478L27.6022 9.40009C28.0533 9.40009 28.5367 9.42158 29.0522 9.46454C29.5678 9.5075 30.0833 9.56121 30.5989 9.62565C31.1144 9.6901 31.587 9.77602 32.0167 9.88343C32.4678 9.96935 32.8222 10.066 33.08 10.1734C33.1444 11.4838 33.2089 13.0734 33.2733 14.9423C33.3378 16.8112 33.3915 18.8304 33.4344 21.0001C33.4989 23.1482 33.5526 25.3393 33.5956 27.5734C33.6385 29.8075 33.6707 31.9663 33.6922 34.05C33.7137 36.1337 33.7244 38.0134 33.7244 39.6889C33.7244 40.8919 33.7137 42.0626 33.6922 43.2011C33.6922 44.3182 33.6707 45.3493 33.6278 46.2945C33.5848 47.2182 33.5311 48.013 33.4667 48.6789C33.4237 49.3233 33.3807 49.7637 33.3378 50C32.9081 50.0215 32.5 50.0322 32.1133 50.0322C31.7482 50.0537 31.383 50.0644 31.0178 50.0644C30.5452 50.0644 30.0941 50.0537 29.6645 50.0322C29.2348 50.0107 28.8589 49.9785 28.5367 49.9356C28.193 49.3126 27.5808 48.2278 26.7 46.6811C25.8408 45.1345 24.7989 43.2978 23.5745 41.1711C22.3715 39.0445 21.0934 36.7889 19.74 34.4045C18.4082 32.02 17.0978 29.7 15.8089 27.4445C14.52 25.1675 13.3493 23.116 12.2967 21.2901C11.2441 19.4641 10.4171 18.0356 9.81561 17.0045C9.88005 17.6704 9.93376 18.8412 9.97672 20.5167C10.0197 22.1708 10.0626 24.1256 10.1056 26.3812C10.1701 28.6367 10.2238 30.9997 10.2667 33.47C10.3097 35.9189 10.3526 38.2819 10.3956 40.5589C10.4386 42.8359 10.4708 44.8337 10.4923 46.5522C10.5138 48.2493 10.5245 49.4522 10.5245 50.1611ZM49.4488 32.2456C45.7111 32.2456 42.9615 31.2682 41.2 29.3134C39.4385 27.3371 38.5578 24.5015 38.5578 20.8067C38.5578 17.3267 39.5567 14.6523 41.5544 12.7834C43.5737 10.9145 46.2159 9.98009 49.4811 9.98009C52.9825 9.98009 55.5496 11.1079 57.1822 13.3634C58.8362 15.619 59.6633 18.5297 59.6633 22.0956C59.6633 25.1889 58.7611 27.6593 56.9566 29.5067C55.1737 31.3326 52.6711 32.2456 49.4488 32.2456ZM49.2877 28.6367C50.8774 28.6367 52.1555 28.293 53.1222 27.6056C54.0888 26.8967 54.787 26.0052 55.2166 24.9312C55.6462 23.8356 55.8611 22.6971 55.8611 21.5156C55.8611 19.0667 55.324 17.0582 54.25 15.4901C53.1759 13.9219 51.5111 13.1379 49.2555 13.1379C47.0644 13.1379 45.3996 13.8575 44.2611 15.2967C43.1226 16.736 42.5533 18.5727 42.5533 20.8067C42.5533 23.1052 43.1226 24.9849 44.2611 26.4456C45.4211 27.9063 47.0966 28.6367 49.2877 28.6367Z" fill="black"/>
<path d="M59.1155 33.2089C59.1155 33.703 59.1155 34.283 59.1155 34.9489C59.1155 35.6148 59.094 36.1411 59.0511 36.5278C57.4829 36.5278 55.7429 36.5278 53.8311 36.5278C51.9192 36.5278 50.0181 36.5278 48.1277 36.5278C46.2589 36.5278 44.5511 36.5278 43.0044 36.5278C41.4792 36.5278 40.287 36.5278 39.4278 36.5278C39.3848 36.0767 39.3418 35.5719 39.2989 35.0134C39.2774 34.4548 39.2667 33.8856 39.2667 33.3056C40.3837 33.2626 41.9948 33.2197 44.1 33.1767C46.2052 33.1337 48.2889 33.1123 50.3511 33.1123C52.3274 33.1123 54.0888 33.1123 55.6355 33.1123C57.1822 33.1123 58.3422 33.1445 59.1155 33.2089ZM10.5245 47.1611C9.96598 47.1826 9.32154 47.1826 8.59117 47.1611C7.8608 47.1611 7.16265 47.1504 6.49673 47.1289C5.8308 47.1074 5.29377 47.0752 4.88562 47.0322C4.86414 46.6026 4.84266 45.6037 4.82118 44.0356C4.7997 42.4674 4.77821 40.5448 4.75673 38.2678C4.73525 35.9693 4.71377 33.5097 4.69229 30.8889C4.69229 28.2682 4.68155 25.6689 4.66007 23.0912C4.66007 20.5134 4.66007 18.1719 4.66007 16.0667C4.66007 14.6704 4.66007 13.3279 4.66007 12.039C4.66007 10.7286 4.64933 9.55787 4.62784 8.52676C4.62784 7.49565 4.6171 6.65787 4.59562 6.01343C4.89636 6.01343 5.30451 6.03491 5.82006 6.07787C6.33562 6.09935 6.88339 6.13158 7.46339 6.17454C8.06487 6.19602 8.63413 6.23899 9.17117 6.30343C9.7082 6.34639 10.1378 6.4001 10.4601 6.46454C12.1571 9.02083 13.8649 11.7382 15.5834 14.6167C17.3234 17.4953 19.0204 20.3952 20.6745 23.3167C22.3285 26.2167 23.8645 28.9986 25.2822 31.6623C26.7215 34.326 27.9889 36.7211 29.0845 38.8478L27.6022 6.40009C28.0533 6.40009 28.5367 6.42158 29.0522 6.46454C29.5678 6.5075 30.0833 6.56121 30.5989 6.62565C31.1144 6.6901 31.587 6.77602 32.0167 6.88343C32.4678 6.96935 32.8222 7.06602 33.08 7.17343C33.1444 8.48379 33.2089 10.0734 33.2733 11.9423C33.3378 13.8112 33.3915 15.8304 33.4344 18.0001C33.4989 20.1482 33.5526 22.3393 33.5956 24.5734C33.6385 26.8075 33.6707 28.9663 33.6922 31.05C33.7137 33.1337 33.7244 35.0134 33.7244 36.6889C33.7244 37.8919 33.7137 39.0626 33.6922 40.2011C33.6922 41.3182 33.6707 42.3493 33.6278 43.2945C33.5848 44.2182 33.5311 45.013 33.4667 45.6789C33.4237 46.3233 33.3807 46.7637 33.3378 47C32.9081 47.0215 32.5 47.0322 32.1133 47.0322C31.7482 47.0537 31.383 47.0644 31.0178 47.0644C30.5452 47.0644 30.0941 47.0537 29.6645 47.0322C29.2348 47.0107 28.8589 46.9785 28.5367 46.9356C28.193 46.3126 27.5808 45.2278 26.7 43.6811C25.8408 42.1345 24.7989 40.2978 23.5745 38.1711C22.3715 36.0445 21.0934 33.7889 19.74 31.4045C18.4082 29.02 17.0978 26.7 15.8089 24.4445C14.52 22.1675 13.3493 20.116 12.2967 18.2901C11.2441 16.4641 10.4171 15.0356 9.81561 14.0045C9.88005 14.6704 9.93376 15.8412 9.97672 17.5167C10.0197 19.1708 10.0626 21.1256 10.1056 23.3812C10.1701 25.6367 10.2238 27.9997 10.2667 30.47C10.3097 32.9189 10.3526 35.2819 10.3956 37.5589C10.4386 39.8359 10.4708 41.8337 10.4923 43.5522C10.5138 45.2493 10.5245 46.4522 10.5245 47.1611ZM49.4488 29.2456C45.7111 29.2456 42.9615 28.2682 41.2 26.3134C39.4385 24.3371 38.5578 21.5015 38.5578 17.8067C38.5578 14.3267 39.5567 11.6523 41.5544 9.78342C43.5737 7.91453 46.2159 6.98009 49.4811 6.98009C52.9825 6.98009 55.5496 8.10787 57.1822 10.3634C58.8362 12.619 59.6633 15.5297 59.6633 19.0956C59.6633 22.1889 58.7611 24.6593 56.9566 26.5067C55.1737 28.3326 52.6711 29.2456 49.4488 29.2456ZM49.2877 25.6367C50.8774 25.6367 52.1555 25.293 53.1222 24.6056C54.0888 23.8967 54.787 23.0052 55.2166 21.9312C55.6462 20.8356 55.8611 19.6971 55.8611 18.5156C55.8611 16.0667 55.324 14.0582 54.25 12.4901C53.1759 10.9219 51.5111 10.1379 49.2555 10.1379C47.0644 10.1379 45.3996 10.8575 44.2611 12.2967C43.1226 13.736 42.5533 15.5727 42.5533 17.8067C42.5533 20.1052 43.1226 21.9849 44.2611 23.4456C45.4211 24.9063 47.0966 25.6367 49.2877 25.6367Z" fill="white"/>
</svg>
