<svg width="35" height="35" viewBox="0 0 35 35" fill="none" xmlns="http://www.w3.org/2000/svg">
<circle cx="17.5" cy="17.5" r="15" stroke="#FFD801" stroke-width="5"/>
<path d="M17.5 26C22.1944 26 26 22.1944 26 17.5C26 12.8056 22.1944 9 17.5 9C12.8056 9 9 12.8056 9 17.5C9 22.1944 12.8056 26 17.5 26Z" fill="#FFD801"/>
<path d="M17.66 20.2517L13.2749 15.8666L11.5287 17.6127L15.9139 21.9979L17.66 20.2517Z" fill="#FFD801"/>
<path d="M16.3558 22.4402L24.1006 14.6954L22.3544 12.9492L14.6096 20.694L16.3558 22.4402Z" fill="#FFD801"/>
<path d="M17.6605 19.548L13.2754 15.1628L11.5292 16.909L15.9144 21.2941L17.6605 19.548Z" fill="#1C1F24"/>
<path d="M16.3563 21.7367L24.1011 13.9919L22.3549 12.2457L14.6101 19.9905L16.3563 21.7367Z" fill="#1C1F24"/>
</svg>
