<svg width="26" height="26" viewBox="0 0 26 26" fill="none" xmlns="http://www.w3.org/2000/svg">
<g clip-path="url(#clip0_57_2086)">
<path d="M13 26C20.1797 26 26 20.1797 26 13C26 5.8203 20.1797 0 13 0C5.8203 0 0 5.8203 0 13C0 20.1797 5.8203 26 13 26Z" fill="#FFC843"/>
<path d="M12.9998 23.1111C18.584 23.1111 23.1109 18.5842 23.1109 13C23.1109 7.41581 18.584 2.88892 12.9998 2.88892C7.41557 2.88892 2.88867 7.41581 2.88867 13C2.88867 18.5842 7.41557 23.1111 12.9998 23.1111Z" fill="#D38700"/>
<path d="M14.3665 12.0582H11.633C11.356 12.0582 11.122 11.8242 11.122 11.5472V9.42643C11.122 9.14939 11.356 8.91539 11.633 8.91539H14.3665C14.6436 8.91539 14.8776 9.14939 14.8776 9.42643C14.8776 9.90512 15.2655 10.2931 15.7442 10.2931C16.2229 10.2931 16.6109 9.90512 16.6109 9.42643C16.6109 8.18883 15.6041 7.18205 14.3665 7.18205H13.8664V6.34225C13.8664 5.86356 13.4785 5.47559 12.9998 5.47559C12.5211 5.47559 12.1331 5.86356 12.1331 6.34225V7.18205H11.633C10.3954 7.18205 9.38867 8.18883 9.38867 9.42643V11.5472C9.38867 12.7827 10.3926 13.7881 11.6276 13.7913C11.6296 13.7913 11.6313 13.7918 11.633 13.7918H14.3665C14.6436 13.7918 14.8776 14.0258 14.8776 14.3029V16.4236C14.8776 16.7007 14.6436 16.9349 14.3665 16.9349H11.633C11.356 16.9349 11.122 16.7007 11.122 16.4236C11.122 15.9449 10.734 15.5569 10.2553 15.5569C9.77665 15.5569 9.38867 15.9449 9.38867 16.4236C9.38867 17.6612 10.3954 18.6683 11.633 18.6683H12.1331V19.6583C12.1331 20.137 12.5211 20.525 12.9998 20.525C13.4785 20.525 13.8664 20.137 13.8664 19.6583V18.6683H14.3665C15.6038 18.6683 16.6109 17.6615 16.6109 16.4236V14.3029C16.6109 13.065 15.6041 12.0582 14.3665 12.0582Z" fill="#FFC843"/>
</g>
<defs>
<clipPath id="clip0_57_2086">
<rect width="26" height="26" fill="white"/>
</clipPath>
</defs>
</svg>
