<svg width="51" height="48" viewBox="0 0 51 48" fill="none" xmlns="http://www.w3.org/2000/svg">
<path opacity="0.9" d="M26.3329 0C17.5553 0 9.78079 4.765 5.76816 12.0379L0 6.26974V22.5711H16.3013L9.27921 15.5489C12.5395 9.27921 18.8092 5.01579 26.3329 5.01579C36.6153 5.01579 45.1421 13.5426 45.1421 23.825C45.1421 34.1074 36.6153 42.6342 26.3329 42.6342C18.0568 42.6342 11.2855 37.3676 8.52684 30.0947H3.26026C6.01895 40.1263 15.2982 47.65 26.3329 47.65C39.6247 47.65 50.1579 36.8661 50.1579 23.825C50.1579 10.7839 39.3739 0 26.3329 0ZM22.5711 12.5395V25.3297L34.3582 32.3518L36.3645 29.0916L26.3329 23.0726V12.5395H22.5711Z" fill="#FFD801"/>
</svg>
