<svg width="24" height="24" viewBox="0 0 24 24" fill="none" xmlns="http://www.w3.org/2000/svg">
<path d="M12.0242 23C10.6736 23 9.29047 22.9552 7.99978 22.835C7.83145 22.8193 7.66469 22.8023 7.49978 22.784M11.9753 23C16.782 23 21.9998 22.433 21.9998 19.9151C21.9998 16.5833 18.4242 15.4696 15.4053 14.449C15.1876 14.3807 14.2725 13.8333 14.2725 12.4079C15.7703 10.979 17.3609 8.64391 17.3609 6.35285C17.3609 2.83746 14.8976 1 11.9998 1C9.102 1 6.63867 2.83746 6.63867 6.35285C6.63867 8.64391 8.22928 10.979 9.72706 12.4079C9.72706 13.1683 9.46669 13.6788 9.19068 14" stroke="#AFAFAF" stroke-width="2"/>
<path d="M6 23C8.76142 23 11 20.7614 11 18C11 15.2386 8.76142 13 6 13C3.23858 13 1 15.2386 1 18C1 20.7614 3.23858 23 6 23Z" stroke="#AFAFAF" stroke-width="2"/>
<path fill-rule="evenodd" clip-rule="evenodd" d="M6.46033 15.368C6.36077 15.2857 6.22263 15.2683 6.10576 15.3233C5.98888 15.3783 5.91429 15.4959 5.91429 15.625V16.4269C5.29222 16.4665 4.61183 16.627 4.05959 17.0425C3.41798 17.5253 3 18.3136 3 19.5C3 19.6417 3.08947 19.7679 3.22312 19.8148C3.35678 19.8616 3.50548 19.819 3.59396 19.7084C3.93948 19.2765 4.30058 19.066 4.69975 18.9564C5.05547 18.8587 5.44788 18.8385 5.91429 18.8345V19.625C5.91429 19.7542 5.98888 19.8718 6.10576 19.9268C6.22263 19.9818 6.36077 19.9644 6.46033 19.8821L8.46484 18.2248C8.84129 17.9136 8.84129 17.3365 8.46484 17.0253L6.46033 15.368Z" fill="#AFAFAF"/>
</svg>
