<svg width="24" height="24" viewBox="0 0 24 24" fill="none" xmlns="http://www.w3.org/2000/svg">
<path fill-rule="evenodd" clip-rule="evenodd" d="M4 1.97607C2.34315 1.97607 1 3.31922 1 4.97607V10.8219C1 12.146 1.52523 13.416 2.46045 14.3534L8.93986 20.8475C10.8918 22.8039 14.0608 22.8057 16.0149 20.8515L19.8755 16.991C21.8297 15.0368 21.8279 11.8679 19.8715 9.91593L13.3773 3.43653C12.44 2.5013 11.1699 1.97607 9.8458 1.97607H4ZM3 4.97607C3 4.42379 3.44772 3.97607 4 3.97607H9.8458C10.6403 3.97607 11.4023 4.29121 11.9647 4.85235L18.4588 11.3318C19.6327 12.5029 19.6338 14.4043 18.4613 15.5768L14.6007 19.4373C13.4282 20.6098 11.5269 20.6088 10.3557 19.4349L3.87627 12.9408C3.31514 12.3784 3 11.6163 3 10.8219V4.97607ZM6 8C6.55228 8 7 7.55228 7 7C7 6.44772 6.55228 6 6 6C5.44772 6 5 6.44772 5 7C5 7.55228 5.44772 8 6 8Z" fill="#AFAFAF"/>
<path d="M14.8344 16.7922C14.7799 16.8467 14.718 16.8738 14.6487 16.8738C14.5793 16.8738 14.5174 16.8467 14.463 16.7922L13.9504 16.2796C13.5294 16.6114 13.1233 16.8342 12.7321 16.9481C12.3359 17.0571 11.9719 17.0744 11.6401 17.0001C11.3083 16.9258 11.026 16.7822 10.7932 16.5693C10.7536 16.5296 10.7338 16.4801 10.7338 16.4207C10.7338 16.3514 10.7561 16.2944 10.8007 16.2498L11.5955 15.455C11.6599 15.3906 11.7243 15.3559 11.7887 15.351C11.8481 15.3411 11.9125 15.3411 11.9818 15.351C12.1007 15.4005 12.2369 15.4277 12.3904 15.4327C12.5489 15.4327 12.7222 15.3931 12.9104 15.3138C13.0936 15.2296 13.2843 15.0885 13.4824 14.8904C13.8043 14.5685 13.9925 14.2763 14.047 14.0138C14.1064 13.7464 14.047 13.5236 13.8687 13.3453C13.7399 13.2165 13.5913 13.1571 13.423 13.167C13.2595 13.1719 13.0515 13.2363 12.799 13.3601C12.5513 13.479 12.2344 13.6573 11.8481 13.895C11.3974 14.1872 10.9814 14.4001 10.6001 14.5338C10.2138 14.6626 9.85475 14.6948 9.52295 14.6304C9.19114 14.5561 8.87666 14.3704 8.57952 14.0733C8.18828 13.682 7.99514 13.2116 8.00009 12.6618C8.00999 12.1072 8.23038 11.55 8.66123 10.9904L8.14866 10.4778C8.09418 10.4234 8.06695 10.3615 8.06695 10.2921C8.06695 10.2228 8.09419 10.1609 8.14866 10.1064L8.67609 9.57904C8.72561 9.52951 8.78504 9.50475 8.85437 9.50475C8.92371 9.50475 8.98561 9.53199 9.04009 9.58647L9.56752 10.1138C9.96371 9.82666 10.3525 9.64589 10.7338 9.57161C11.1151 9.48742 11.4618 9.48246 11.7738 9.55675C12.0858 9.62113 12.3334 9.73999 12.5167 9.91332C12.5563 9.95294 12.5786 10.0049 12.5835 10.0693C12.5835 10.1287 12.5612 10.1807 12.5167 10.2253L11.6772 11.0647C11.6327 11.1093 11.5807 11.1415 11.5212 11.1613C11.4618 11.1811 11.3925 11.1811 11.3132 11.1613C11.1597 11.0573 10.9616 11.0325 10.719 11.087C10.4713 11.1365 10.2336 11.2752 10.0058 11.503C9.76314 11.7457 9.61456 11.9834 9.56009 12.2161C9.50561 12.4489 9.56999 12.6569 9.75323 12.8401C9.87209 12.959 10.0108 13.0234 10.1692 13.0333C10.3228 13.0382 10.5159 12.9887 10.7487 12.8847C10.9765 12.7757 11.2711 12.6148 11.6327 12.4018C12.1576 12.0552 12.6182 11.8076 13.0144 11.659C13.4106 11.5104 13.7696 11.4733 14.0915 11.5476C14.4134 11.6119 14.723 11.7927 15.0201 12.0898C15.3073 12.3771 15.4906 12.7039 15.5698 13.0704C15.6441 13.4319 15.6169 13.8108 15.4881 14.207C15.3643 14.5982 15.1489 14.9919 14.8418 15.3881L15.3544 15.9007C15.4089 15.9552 15.4361 16.0171 15.4361 16.0864C15.4361 16.1557 15.4113 16.2152 15.3618 16.2647L14.8344 16.7922Z" fill="#AFAFAF"/>
</svg>
