<svg width="24" height="24" viewBox="0 0 24 24" fill="none" xmlns="http://www.w3.org/2000/svg">
<path d="M1 10.6316V11.5M1 10.6316V9.22877C1 7.37556 2.13258 5.71375 3.84898 5.04849L11.1602 2.21473C13.2251 1.41439 15.4444 2.95039 15.4444 5.17988M1 10.6316C1 8.56615 2.52487 6.82333 4.5583 6.56466L15.4444 5.17988M15.4444 5.17988L15.999 5.10934C18.6534 4.77168 21 6.85672 21 9.55289V10.6316M21 15V16.5878C21 18.9172 19.2282 20.8577 16.9246 21.0511L13 21.5" stroke="#AFAFAF" stroke-width="2" stroke-linecap="round"/>
<mask id="mask0_78_241" style="mask-type:luminance" maskUnits="userSpaceOnUse" x="0" y="13" width="8" height="8">
<path fill-rule="evenodd" clip-rule="evenodd" d="M2 17C2 15.8954 2.89543 15 4 15C5.02855 15 5.87576 15.7764 5.9875 16.7751C6.49087 16.3195 7.14956 16.0324 7.87464 16.0026C7.4315 14.276 5.86477 13 4 13C1.79086 13 0 14.7909 0 17C0 19.2091 1.79086 21 4 21C4.54065 21 5.05625 20.8927 5.52667 20.6983C5.19446 20.2154 5 19.6304 5 19C5 18.9074 5.0042 18.8157 5.01242 18.7252C4.71546 18.8998 4.36942 19 4 19C2.89543 19 2 18.1046 2 17Z" fill="white"/>
</mask>
<g mask="url(#mask0_78_241)">
<path d="M5.9875 16.7751L3.9999 16.9975L4.43413 20.8787L7.32961 18.258L5.9875 16.7751ZM7.87464 16.0026L7.95678 18.0009L10.4263 17.8994L9.81185 15.5054L7.87464 16.0026ZM5.52667 20.6983L6.29053 22.5467L8.5761 21.6022L7.17439 19.5647L5.52667 20.6983ZM5.01242 18.7252L7.00422 18.9061L7.35655 15.0263L3.99854 17.0012L5.01242 18.7252ZM4 13C1.79086 13 0 14.7909 0 17H4V13ZM7.9751 16.5528C7.75139 14.5532 6.05846 13 4 13V17C4.00248 17 4.00305 17.0002 4.00226 17.0001C4.00154 16.9999 4.00089 17.0004 4 17C3.99874 16.9988 3.99834 16.9994 4 17C4.00137 17.0012 4.00137 17.0017 4.00114 17.0013C4.00095 17.0009 4.00031 17.001 4 17C3.99967 16.9989 3.99989 16.9974 3.9999 16.9975L7.9751 16.5528ZM7.32961 18.258C7.49911 18.1045 7.71616 18.0108 7.95678 18.0009L7.7925 14.0043C6.58295 14.054 5.48263 14.5345 4.64539 15.2923L7.32961 18.258ZM4 15C4.92965 15 5.71576 15.6361 5.93744 16.4998L9.81185 15.5054C9.14723 12.916 6.79989 11 4 11V15ZM2 17C2 15.8954 2.89543 15 4 15V11C0.686292 11 -2 13.6863 -2 17H2ZM4 19C2.89543 19 2 18.1046 2 17H-2C-2 20.3137 0.686291 23 4 23V19ZM4.76282 18.8499C4.53038 18.946 4.27401 19 4 19V23C4.80729 23 5.58212 22.8395 6.29053 22.5467L4.76282 18.8499ZM7.17439 19.5647C7.06428 19.4047 7 19.2129 7 19H3C3 20.048 3.32464 21.0262 3.87895 21.8319L7.17439 19.5647ZM7 19C7 18.9678 7.00146 18.9365 7.00422 18.9061L3.02061 18.5443C3.00694 18.6949 3 18.8469 3 19H7ZM4 21C4.73557 21 5.43042 20.7996 6.0263 20.4492L3.99854 17.0012C3.99872 17.0011 3.99968 17.0006 4.00123 17.0002C4.00313 16.9997 4.00321 17 4 17V21ZM0 17C0 19.2091 1.79086 21 4 21V17H0Z" fill="#AFAFAF"/>
</g>
<path d="M7 22C8.65685 22 10 20.6569 10 19C10 17.3431 8.65685 16 7 16C5.34315 16 4 17.3431 4 19C4 20.6569 5.34315 22 7 22Z" stroke="#AFAFAF" stroke-width="2"/>
<path d="M21.1674 14.9076L19.1747 15.0783C18.0742 15.1726 17.1056 14.3569 17.0113 13.2564C16.917 12.1558 17.7327 11.1872 18.8332 11.0929L20.8259 10.9222C21.9265 10.8279 22.8951 11.6436 22.9894 12.7441C23.0837 13.8446 22.268 14.8132 21.1674 14.9076Z" stroke="#AFAFAF" stroke-width="2"/>
</svg>
